<svg width="165" height="48" viewBox="0 0 165 48" fill="none" xmlns="http://www.w3.org/2000/svg">
<path d="M29.0375 13.668H31.5375V30.372H39.0375V32.772H29.0375V13.668ZM46.825 13.668C48.3084 13.668 49.7584 14.0903 50.9918 14.8815C52.2251 15.6726 53.1865 16.797 53.7541 18.1127C54.3218 19.4284 54.4703 20.8761 54.1809 22.2726C53.8915 23.6693 53.1773 24.9522 52.1283 25.9591C51.0794 26.9662 49.743 27.6519 48.2881 27.9297C46.8334 28.2075 45.3254 28.0649 43.9549 27.52C42.5844 26.9749 41.4131 26.0521 40.589 24.8681C39.7649 23.6841 39.325 22.2921 39.325 20.868C39.325 19.9225 39.519 18.9862 39.8959 18.1127C40.2728 17.2391 40.8253 16.4454 41.5218 15.7769C42.2181 15.1083 43.0449 14.5779 43.9549 14.2161C44.8648 13.8543 45.8401 13.668 46.825 13.668ZM46.825 25.668C47.8139 25.668 48.7806 25.3865 49.6029 24.8591C50.4251 24.3316 51.066 23.5819 51.4444 22.7049C51.8229 21.8278 51.9219 20.8627 51.7289 19.9315C51.536 19.0005 51.0598 18.1452 50.3605 17.4739C49.6613 16.8027 48.7704 16.3455 47.8005 16.1603C46.8305 15.975 45.8253 16.0701 44.9116 16.4334C43.998 16.7967 43.217 17.4119 42.6676 18.2013C42.1183 18.9906 41.825 19.9187 41.825 20.868C41.8316 22.1369 42.3613 23.3517 43.2983 24.2466C44.2353 25.1416 45.5033 25.644 46.825 25.644V25.668ZM41.825 30.396H51.825V32.796H41.825V30.396ZM73.825 32.796H71.325V31.08C69.7128 32.1634 67.793 32.7456 65.825 32.748C64.1469 32.7588 62.4929 32.364 61.0155 31.6C59.538 30.8358 58.2846 29.7271 57.3709 28.3759C56.457 27.0247 55.912 25.4745 55.7863 23.8679C55.6604 22.2615 55.9578 20.6503 56.6509 19.1832C57.344 17.716 58.4106 16.4398 59.7524 15.4723C61.0943 14.5048 62.6681 13.8769 64.329 13.6468C65.99 13.4165 67.6846 13.5913 69.2566 14.155C70.8288 14.7186 72.2279 15.6529 73.325 16.872L71.4875 18.444C70.653 17.5483 69.5984 16.8675 68.4195 16.4634C67.2408 16.0593 65.9754 15.9448 64.7388 16.1304C63.502 16.3161 62.3335 16.7959 61.3394 17.5261C60.3454 18.2565 59.5575 19.2138 59.0478 20.3113C58.5379 21.4087 58.3223 22.6111 58.4205 23.8091C58.5188 25.0071 58.9276 26.1623 59.6101 27.1696C60.2926 28.1769 61.2268 29.0043 62.3276 29.5762C63.4284 30.1481 64.6609 30.4464 65.9125 30.444C66.9513 30.4461 67.9783 30.2327 68.9233 29.8185C69.8681 29.4042 70.7088 28.7989 71.3875 28.044H64.6375V25.644H73.85L73.825 32.796ZM83.025 13.716C84.5084 13.716 85.9584 14.1383 87.1918 14.9295C88.4251 15.7206 89.3865 16.845 89.9541 18.1607C90.5218 19.4764 90.6703 20.9241 90.3809 22.3206C90.0915 23.7173 89.3773 25.0002 88.3283 26.0071C87.2794 27.0142 85.943 27.6999 84.4881 27.9777C83.0334 28.2555 81.5254 28.1129 80.1549 27.568C78.7844 27.0229 77.6131 26.1001 76.789 24.9161C75.9649 23.7321 75.525 22.3401 75.525 20.916C75.5184 19.9644 75.7084 19.0211 76.0839 18.1404C76.4594 17.2597 77.013 16.4592 77.7128 15.7853C78.4125 15.1113 79.2445 14.5771 80.1606 14.2137C81.0768 13.8503 82.0588 13.6648 83.05 13.668L83.025 13.716ZM83.025 25.716C84.0139 25.716 84.9806 25.4345 85.8029 24.9071C86.6251 24.3796 87.266 23.6299 87.6444 22.7529C88.0229 21.8758 88.1219 20.9107 87.9289 19.9795C87.736 19.0485 87.2598 18.1932 86.5605 17.5219C85.8613 16.8507 84.9704 16.3935 84.0005 16.2083C83.0305 16.023 82.0253 16.1181 81.1116 16.4814C80.198 16.8447 79.417 17.4599 78.8676 18.2493C78.3183 19.0386 78.025 19.9667 78.025 20.916C78.0448 22.1807 78.5836 23.3868 79.5246 24.2722C80.4655 25.1574 81.7325 25.6505 83.05 25.644L83.025 25.716ZM78.025 30.444H88.025V32.844H78.025V30.444ZM93.1875 13.668H95.6875V32.748H93.1875V13.668ZM99.15 13.668H101.65C101.779 13.6549 101.909 13.6549 102.038 13.668C103.085 13.5589 104.144 13.6629 105.146 13.9728C106.149 14.2829 107.072 14.7921 107.856 15.4673C108.639 16.1425 109.266 16.9687 109.695 17.892C110.125 18.8153 110.346 19.815 110.346 20.826C110.346 21.837 110.125 22.8367 109.695 23.76C109.266 24.6833 108.639 25.5095 107.856 26.1847C107.072 26.86 106.149 27.3691 105.146 27.6792C104.144 27.9892 103.085 28.0931 102.038 27.984H101.65V32.784H99.15V13.668ZM101.65 16.068V25.56H102.038C102.744 25.6503 103.462 25.5947 104.144 25.3968C104.826 25.1991 105.456 24.8637 105.991 24.4132C106.527 23.9627 106.957 23.4075 107.251 22.7847C107.545 22.1619 107.698 21.4859 107.698 20.802C107.698 20.1181 107.545 19.4422 107.251 18.8194C106.957 18.1966 106.527 17.6413 105.991 17.1909C105.456 16.7403 104.826 16.405 104.144 16.2071C103.462 16.0093 102.744 15.9538 102.038 16.044C101.901 16.0576 101.767 16.0858 101.638 16.128L101.65 16.068ZM119.663 15.048L117.813 16.452C117.493 16.1319 117.086 15.9058 116.637 15.8004C116.189 15.6951 115.719 15.7147 115.281 15.8572C114.844 15.9995 114.459 16.2587 114.17 16.6043C113.881 16.9499 113.7 17.3675 113.65 17.808V18C113.65 19.056 114.413 19.764 115.9 19.86C121.625 20.196 124.25 22.776 124.25 26.184V26.4C124.102 27.7488 123.554 29.0285 122.67 30.0869C121.787 31.1453 120.605 31.9377 119.266 32.37C117.927 32.8023 116.487 32.8563 115.117 32.5254C113.747 32.1947 112.504 31.4931 111.538 30.504L113.45 29.088C113.895 29.5461 114.439 29.9056 115.043 30.1419C115.648 30.378 116.298 30.4853 116.95 30.456C118.154 30.517 119.336 30.129 120.249 29.3731C121.162 28.6174 121.736 27.5521 121.85 26.4V26.232C121.85 23.028 118.575 22.44 115.738 22.176C113.113 21.936 111.225 20.364 111.225 18.096V18C111.318 16.8192 111.879 15.7176 112.793 14.9227C113.707 14.1277 114.904 13.7001 116.138 13.728C116.791 13.7095 117.441 13.8227 118.046 14.0604C118.651 14.2981 119.198 14.655 119.65 15.108L119.663 15.048ZM134.038 30.312C137.15 30.312 139.613 27.084 139.613 23.112V13.512H142.113V23.112C142.113 28.392 138.512 32.652 134.088 32.652C129.663 32.652 126.063 28.392 126.063 23.112V13.512H128.563V23.112C128.463 27.144 130.925 30.372 134.025 30.372L134.038 30.312ZM161.3 32.712H158.8V20.832L153.038 28.032L147.275 20.832V32.748H144.775V13.668L153.025 24.096L161.275 13.668L161.3 32.712Z" fill="#F7E187"/>
<path d="M17.0375 10.8C17.0375 9.06864 16.3211 7.40821 15.0459 6.18398C13.7706 4.95974 12.041 4.27197 10.2375 4.27197C8.43402 4.27197 6.70442 4.95974 5.42917 6.18398C4.15392 7.40821 3.4375 9.06864 3.4375 10.8V30.54L9.0375 34.392V43.776H11.4375V34.392L17.0375 30.54V10.8ZM14.6375 21.84L11.4375 24.912V22.032L14.6375 18.96V21.84ZM5.8875 18.96L9.0875 22.032V24.912L5.8875 21.84V18.96ZM14.6375 15.696L10.2375 19.92L5.8375 15.6V12.72L10.2375 16.944L14.6375 12.72V15.696ZM10.2375 6.57597C11.2052 6.58008 12.1448 6.88861 12.9124 7.45429C13.68 8.01997 14.2332 8.81161 14.4875 9.70797L10.2375 13.776L5.9875 9.70797C6.23242 8.80269 6.78171 8.00031 7.55016 7.42534C8.31861 6.85036 9.26324 6.53492 10.2375 6.52796V6.57597ZM5.8375 29.376V25.056L9.0375 28.128V31.56L5.8375 29.376ZM11.4375 31.572V28.128L14.6375 25.056V29.364L11.4375 31.572Z" fill="#F7E187"/>
</svg>
