<svg width="14" height="40" viewBox="0 0 14 40" fill="none" xmlns="http://www.w3.org/2000/svg">
<path d="M13.6245 6.79997C13.6245 5.06864 12.9255 3.40821 11.6811 2.18398C10.4368 0.959741 8.74908 0.271973 6.98932 0.271973C5.22957 0.271973 3.5419 0.959741 2.29756 2.18398C1.05323 3.40821 0.354172 5.06864 0.354172 6.79997V26.54L5.81841 30.392V39.776H8.16023V30.392L13.6245 26.54V6.79997ZM11.2827 17.84L8.16023 20.912V18.032L11.2827 14.96V17.84ZM2.74478 14.96L5.8672 18.032V20.912L2.74478 17.84V14.96ZM11.2827 11.696L6.98932 15.92L2.69599 11.6V8.71997L6.98932 12.944L11.2827 8.71997V11.696ZM6.98932 2.57597C7.93355 2.58008 8.85037 2.88861 9.59935 3.45429C10.3484 4.01997 10.8882 4.81161 11.1363 5.70797L6.98932 9.77597L2.84235 5.70797C3.08134 4.80269 3.61731 4.00031 4.36713 3.42534C5.11695 2.85036 6.03868 2.53492 6.98932 2.52796V2.57597ZM2.69599 25.376V21.056L5.81841 24.128V27.56L2.69599 25.376ZM8.16023 27.572V24.128L11.2827 21.056V25.364L8.16023 27.572Z" fill="#394149"/>
</svg>
