<svg width="130" height="20" viewBox="0 0 130 20" fill="none" xmlns="http://www.w3.org/2000/svg">
<path d="M0.333557 0.668024H2.77295V17.372H10.0911V19.772H0.333557V0.668024ZM17.6898 0.668024C19.1373 0.668024 20.5521 1.0903 21.7556 1.88146C22.9591 2.67262 23.8971 3.79702 24.451 5.1127C25.0049 6.42838 25.1498 7.87606 24.8674 9.27262C24.585 10.6693 23.8881 11.9522 22.8645 12.9591C21.8411 13.9662 20.5371 14.6519 19.1175 14.9297C17.698 15.2075 16.2266 15.0649 14.8893 14.52C13.552 13.9749 12.4092 13.0521 11.605 11.8681C10.8009 10.6841 10.3717 9.29206 10.3717 7.86802C10.3717 6.92254 10.561 5.98618 10.9287 5.1127C11.2964 4.2391 11.8355 3.44542 12.5152 2.7769C13.1947 2.10826 14.0014 1.57786 14.8893 1.21606C15.7771 0.854263 16.7288 0.668024 17.6898 0.668024ZM17.6898 12.668C18.6547 12.668 19.5981 12.3865 20.4004 11.8591C21.2027 11.3316 21.828 10.5819 22.1972 9.70486C22.5666 8.82778 22.6632 7.86274 22.4748 6.93154C22.2866 6.00046 21.8219 5.14522 21.1396 4.47394C20.4573 3.80266 19.5881 3.34546 18.6417 3.1603C17.6952 2.97502 16.7143 3.07006 15.8229 3.43342C14.9314 3.79666 14.1693 4.4119 13.6333 5.20126C13.0972 5.99062 12.8111 6.9187 12.8111 7.86802C12.8175 9.1369 13.3343 10.3517 14.2486 11.2466C15.1629 12.1416 16.4001 12.644 17.6898 12.644V12.668ZM12.8111 17.396H22.5686V19.796H12.8111V17.396ZM44.0353 19.796H41.5959V18.08C40.0227 19.1634 38.1495 19.7456 36.2292 19.748C34.5918 19.7588 32.9779 19.364 31.5363 18.6C30.0947 17.8358 28.8717 16.7271 27.9801 15.3759C27.0883 14.0247 26.5566 12.4745 26.4339 10.8679C26.311 9.26146 26.6012 7.65034 27.2775 6.18322C27.9538 4.71598 28.9946 3.43978 30.3038 2.47234C31.6132 1.50478 33.1489 0.876944 34.7695 0.646784C36.3902 0.416504 38.0438 0.591344 39.5777 1.15498C41.1117 1.71862 42.4769 2.65294 43.5474 3.87202L41.7545 5.44402C40.9402 4.54834 39.9111 3.86746 38.7608 3.46342C37.6107 3.05926 36.376 2.94478 35.1693 3.13042C33.9626 3.31606 32.8224 3.79594 31.8524 4.52614C30.8825 5.25646 30.1137 6.21382 29.6163 7.31134C29.1188 8.40874 28.9084 9.61114 29.0042 10.8091C29.1001 12.0071 29.4991 13.1623 30.165 14.1696C30.831 15.1769 31.7425 16.0043 32.8167 16.5762C33.8907 17.1481 35.0933 17.4464 36.3146 17.444C37.3282 17.4461 38.3303 17.2327 39.2524 16.8185C40.1744 16.4042 40.9946 15.7989 41.6569 15.044H35.0705V12.644H44.0597L44.0353 19.796ZM53.0123 0.716024C54.4597 0.716024 55.8745 1.1383 57.078 1.92946C58.2815 2.72062 59.2196 3.84502 59.7734 5.1607C60.3273 6.47638 60.4722 7.92406 60.1898 9.32062C59.9075 10.7173 59.2105 12.0002 58.187 13.0071C57.1635 14.0142 55.8595 14.6999 54.4399 14.9777C53.0204 15.2555 51.549 15.1129 50.2117 14.568C48.8745 14.0229 47.7316 13.1001 46.9274 11.9161C46.1233 10.7321 45.6941 9.34006 45.6941 7.91602C45.6876 6.96442 45.873 6.0211 46.2394 5.14042C46.6058 4.25974 47.146 3.45922 47.8288 2.7853C48.5116 2.11126 49.3234 1.57714 50.2173 1.21366C51.1113 0.850304 52.0694 0.664784 53.0367 0.668024L53.0123 0.716024ZM53.0123 12.716C53.9772 12.716 54.9205 12.4345 55.7228 11.9071C56.5251 11.3796 57.1505 10.6299 57.5197 9.75286C57.889 8.87578 57.9856 7.91074 57.7973 6.97954C57.6091 6.04846 57.1444 5.19322 56.4621 4.52194C55.7798 3.85066 54.9105 3.39346 53.9641 3.2083C53.0176 3.02302 52.0368 3.11806 51.1453 3.48142C50.2538 3.84466 49.4917 4.4599 48.9557 5.24926C48.4196 6.03862 48.1335 6.9667 48.1335 7.91602C48.1528 9.1807 48.6786 10.3868 49.5968 11.2722C50.5148 12.1574 51.7511 12.6505 53.0367 12.644L53.0123 12.716ZM48.1335 17.444H57.8911V19.844H48.1335V17.444ZM62.9284 0.668024H65.3678V19.748H62.9284V0.668024ZM68.7464 0.668024H71.1858C71.3114 0.654944 71.4381 0.654944 71.5639 0.668024C72.5855 0.558944 73.619 0.662864 74.5971 0.972824C75.5752 1.2829 76.4761 1.79206 77.2408 2.4673C78.0057 3.14254 78.6174 3.96874 79.0361 4.89202C79.4549 5.8153 79.6713 6.81502 79.6713 7.82602C79.6713 8.83702 79.4549 9.83674 79.0361 10.76C78.6174 11.6833 78.0057 12.5095 77.2408 13.1847C76.4761 13.86 75.5752 14.3691 74.5971 14.6792C73.619 14.9892 72.5855 15.0931 71.5639 14.984H71.1858V19.784H68.7464V0.668024ZM71.1858 3.06802V12.56H71.5639C72.2529 12.6503 72.9535 12.5947 73.6189 12.3968C74.2843 12.1991 74.899 11.8637 75.4219 11.4132C75.9449 10.9627 76.3639 10.4075 76.651 9.78466C76.9381 9.16186 77.0866 8.4859 77.0866 7.80202C77.0866 7.11814 76.9381 6.44218 76.651 5.81938C76.3639 5.19658 75.9449 4.64134 75.4219 4.19086C74.899 3.74026 74.2843 3.40498 73.6189 3.2071C72.9535 3.00934 72.2529 2.95378 71.5639 3.04402C71.431 3.05758 71.3 3.08578 71.1736 3.12802L71.1858 3.06802ZM88.7616 2.04802L86.9564 3.45202C86.6451 3.13186 86.2472 2.90578 85.8097 2.80042C85.3722 2.69506 84.9132 2.71474 84.4867 2.85718C84.06 2.9995 83.6838 3.2587 83.4018 3.6043C83.1198 3.9499 82.9439 4.3675 82.8949 4.80802V5.00002C82.8949 6.05602 83.6389 6.76402 85.0903 6.86002C90.6765 7.19602 93.2379 9.77602 93.2379 13.184V13.4C93.0936 14.7488 92.5586 16.0285 91.6965 17.0869C90.8345 18.1453 89.6815 18.9377 88.3749 19.37C87.0683 19.8023 85.663 19.8563 84.326 19.5254C82.9891 19.1947 81.7769 18.4931 80.8336 17.504L82.6997 16.088C83.134 16.5461 83.6645 16.9056 84.2542 17.1419C84.8439 17.378 85.4788 17.4853 86.1149 17.456C87.2897 17.517 88.4429 17.129 89.3337 16.3731C90.2247 15.6174 90.7845 14.5521 90.8961 13.4V13.232C90.8961 10.028 87.7005 9.44002 84.9317 9.17602C82.3704 8.93602 80.5286 7.36402 80.5286 5.09602V5.00002C80.6189 3.81922 81.1666 2.71762 82.0586 1.92274C82.9506 1.12774 84.1188 0.700063 85.3221 0.728023C85.9597 0.709543 86.5941 0.822704 87.1845 1.06042C87.7749 1.29814 88.308 1.65502 88.7494 2.10802L88.7616 2.04802ZM102.788 17.312C105.825 17.312 108.228 14.084 108.228 10.112V0.512024H110.667V10.112C110.667 15.392 107.155 19.652 102.837 19.652C98.5192 19.652 95.0064 15.392 95.0064 10.112V0.512024H97.4458V10.112C97.3483 14.144 99.7511 17.372 102.776 17.372L102.788 17.312ZM129.39 19.712H126.95V7.83202L121.327 15.032L115.705 7.83202V19.748H113.265V0.668024L121.315 11.096L129.365 0.668024L129.39 19.712Z" fill="#394149"/>
</svg>
